<svg xmlns="http://www.w3.org/2000/svg" viewBox="0 0 1400 700" width="1400" height="700" font-family="Arial, sans-serif" font-size="9">

  <!-- Background -->
  <rect width="1400" height="700" fill="#f8fff8"/>

  <!-- Title bar -->
  <rect x="0" y="0" width="1400" height="38" fill="#1B4332"/>
  <text x="700" y="25" fill="white" font-size="15" font-weight="bold" text-anchor="middle">MAPA DE HISTORIAS DE USUARIO — Red de Donaciones</text>

  <!-- Column widths: each activity ~233px, 6 activities total = 1400px -->
  <!-- Activity headers at y=38 (height=35) -->
  <!-- Backbone stories at y=73 (height=50) -->
  <!-- Tasks row 1 at y=123 (height=44) -->
  <!-- Tasks row 2 at y=167 (height=44) -->
  <!-- Tasks row 3 at y=211 (height=44) -->
  <!-- Release lines -->

  <!-- ── ACTIVITY HEADERS ── -->
  <rect x="0"    y="38" width="233" height="35" fill="#2D6A4F"/>
  <text x="116"  y="60" fill="white" font-size="11" font-weight="bold" text-anchor="middle">DEFINIR NECESIDADES</text>

  <rect x="233"  y="38" width="233" height="35" fill="#2D6A4F"/>
  <text x="349"  y="60" fill="white" font-size="11" font-weight="bold" text-anchor="middle">CONSULTAR INFORMACIÓN</text>

  <rect x="466"  y="38" width="233" height="35" fill="#2D6A4F"/>
  <text x="582"  y="60" fill="white" font-size="11" font-weight="bold" text-anchor="middle">REGISTRAR DONACIONES</text>

  <rect x="699"  y="38" width="233" height="35" fill="#2D6A4F"/>
  <text x="815"  y="60" fill="white" font-size="11" font-weight="bold" text-anchor="middle">GESTIONAR DONACIONES</text>

  <rect x="932"  y="38" width="233" height="35" fill="#2D6A4F"/>
  <text x="1048" y="60" fill="white" font-size="11" font-weight="bold" text-anchor="middle">DISTRIBUIR A DONATARIOS</text>

  <rect x="1165" y="38" width="235" height="35" fill="#2D6A4F"/>
  <text x="1282" y="60" fill="white" font-size="11" font-weight="bold" text-anchor="middle">SEGUIMIENTO</text>

  <!-- ── BACKBONE (User Stories) ── -->
  <!-- Col 1 -->
  <rect x="2"   y="75" width="229" height="42" fill="#d1fae5" stroke="#1B4332" stroke-width="1"/>
  <text x="116" y="90" fill="#1B4332" font-size="9" font-weight="bold" text-anchor="middle">Registrar necesidades</text>
  <text x="116" y="103" fill="#333" font-size="8.5" text-anchor="middle">Intermediario publica artículos</text>
  <text x="116" y="114" fill="#333" font-size="8.5" text-anchor="middle">necesarios con cantidad y fecha</text>

  <!-- Col 2 -->
  <rect x="235" y="75" width="229" height="42" fill="#d1fae5" stroke="#1B4332" stroke-width="1"/>
  <text x="349" y="90" fill="#1B4332" font-size="9" font-weight="bold" text-anchor="middle">Consultar organizaciones</text>
  <text x="349" y="103" fill="#333" font-size="8.5" text-anchor="middle">Donante visualiza organizaciones,</text>
  <text x="349" y="114" fill="#333" font-size="8.5" text-anchor="middle">necesidades y requisitos</text>

  <!-- Col 3 -->
  <rect x="468" y="75" width="229" height="42" fill="#d1fae5" stroke="#1B4332" stroke-width="1"/>
  <text x="582" y="90" fill="#1B4332" font-size="9" font-weight="bold" text-anchor="middle">Registrar donación</text>
  <text x="582" y="103" fill="#333" font-size="8.5" text-anchor="middle">Donante selecciona artículos,</text>
  <text x="582" y="114" fill="#333" font-size="8.5" text-anchor="middle">cantidad y descripción</text>

  <!-- Col 4 -->
  <rect x="701" y="75" width="229" height="42" fill="#d1fae5" stroke="#1B4332" stroke-width="1"/>
  <text x="815" y="90" fill="#1B4332" font-size="9" font-weight="bold" text-anchor="middle">Gestionar donaciones</text>
  <text x="815" y="103" fill="#333" font-size="8.5" text-anchor="middle">Intermediario clasifica y actualiza</text>
  <text x="815" y="114" fill="#333" font-size="8.5" text-anchor="middle">estado de donaciones recibidas</text>

  <!-- Col 5 -->
  <rect x="934" y="75" width="229" height="42" fill="#d1fae5" stroke="#1B4332" stroke-width="1"/>
  <text x="1048" y="90" fill="#1B4332" font-size="9" font-weight="bold" text-anchor="middle">Distribuir donaciones</text>
  <text x="1048" y="103" fill="#333" font-size="8.5" text-anchor="middle">Intermediario asigna donaciones a</text>
  <text x="1048" y="114" fill="#333" font-size="8.5" text-anchor="middle">necesidades y confirma entrega</text>

  <!-- Col 6 -->
  <rect x="1167" y="75" width="231" height="42" fill="#d1fae5" stroke="#1B4332" stroke-width="1"/>
  <text x="1282" y="90" fill="#1B4332" font-size="9" font-weight="bold" text-anchor="middle">Seguimiento</text>
  <text x="1282" y="103" fill="#333" font-size="8.5" text-anchor="middle">Donante y administrador consultan</text>
  <text x="1282" y="114" fill="#333" font-size="8.5" text-anchor="middle">estado e historial de donaciones</text>

  <!-- ── RELEASE 1 (MVP) LINE ── -->
  <line x1="0" y1="120" x2="1400" y2="120" stroke="#e53e3e" stroke-width="2" stroke-dasharray="6,4"/>
  <rect x="0" y="120" width="110" height="16" fill="#e53e3e"/>
  <text x="55" y="132" fill="white" font-size="9" font-weight="bold" text-anchor="middle">RELEASE 1 (MVP)</text>

  <!-- ── TASKS RELEASE 1 ── -->
  <!-- Col 1 Tasks R1 -->
  <rect x="2"   y="139" width="229" height="38" fill="#bbf7d0" stroke="#aaa" stroke-width="0.7"/>
  <text x="116" y="153" fill="#1B4332" font-size="8.5" text-anchor="middle">Registrar tipo de artículo</text>
  <text x="116" y="165" fill="#1B4332" font-size="8.5" text-anchor="middle">y cantidad necesaria</text>

  <rect x="2"   y="179" width="229" height="38" fill="#bbf7d0" stroke="#aaa" stroke-width="0.7"/>
  <text x="116" y="193" fill="#1B4332" font-size="8.5" text-anchor="middle">Publicar necesidades de</text>
  <text x="116" y="205" fill="#1B4332" font-size="8.5" text-anchor="middle">la organización</text>

  <!-- Col 2 Tasks R1 -->
  <rect x="235" y="139" width="229" height="38" fill="#bbf7d0" stroke="#aaa" stroke-width="0.7"/>
  <text x="349" y="153" fill="#1B4332" font-size="8.5" text-anchor="middle">Ver listado de organizaciones</text>
  <text x="349" y="165" fill="#1B4332" font-size="8.5" text-anchor="middle">con nombre y contacto</text>

  <rect x="235" y="179" width="229" height="38" fill="#bbf7d0" stroke="#aaa" stroke-width="0.7"/>
  <text x="349" y="193" fill="#1B4332" font-size="8.5" text-anchor="middle">Consultar artículos necesarios</text>
  <text x="349" y="205" fill="#1B4332" font-size="8.5" text-anchor="middle">por organización</text>

  <!-- Col 3 Tasks R1 -->
  <rect x="468" y="139" width="229" height="38" fill="#bbf7d0" stroke="#aaa" stroke-width="0.7"/>
  <text x="582" y="153" fill="#1B4332" font-size="8.5" text-anchor="middle">Seleccionar organización</text>
  <text x="582" y="165" fill="#1B4332" font-size="8.5" text-anchor="middle">y artículo a donar</text>

  <rect x="468" y="179" width="229" height="38" fill="#bbf7d0" stroke="#aaa" stroke-width="0.7"/>
  <text x="582" y="193" fill="#1B4332" font-size="8.5" text-anchor="middle">Indicar cantidad</text>
  <text x="582" y="205" fill="#1B4332" font-size="8.5" text-anchor="middle">y descripción del artículo</text>

  <!-- Col 4 Tasks R1 -->
  <rect x="701" y="139" width="229" height="38" fill="#bbf7d0" stroke="#aaa" stroke-width="0.7"/>
  <text x="815" y="153" fill="#1B4332" font-size="8.5" text-anchor="middle">Registrar donación recibida</text>
  <text x="815" y="165" fill="#1B4332" font-size="8.5" text-anchor="middle">en proceso y entregada</text>

  <rect x="701" y="179" width="229" height="38" fill="#bbf7d0" stroke="#aaa" stroke-width="0.7"/>
  <text x="815" y="193" fill="#1B4332" font-size="8.5" text-anchor="middle">Actualizar estado</text>
  <text x="815" y="205" fill="#1B4332" font-size="8.5" text-anchor="middle">de donación</text>

  <!-- Col 5 Tasks R1 -->
  <rect x="934" y="139" width="229" height="38" fill="#bbf7d0" stroke="#aaa" stroke-width="0.7"/>
  <text x="1048" y="153" fill="#1B4332" font-size="8.5" text-anchor="middle">Asignar donación a</text>
  <text x="1048" y="165" fill="#1B4332" font-size="8.5" text-anchor="middle">necesidad registrada</text>

  <rect x="934" y="179" width="229" height="38" fill="#bbf7d0" stroke="#aaa" stroke-width="0.7"/>
  <text x="1048" y="193" fill="#1B4332" font-size="8.5" text-anchor="middle">Confirmar asignación</text>
  <text x="1048" y="205" fill="#1B4332" font-size="8.5" text-anchor="middle">y disponibilidad</text>

  <!-- Col 6 Tasks R1 -->
  <rect x="1167" y="139" width="231" height="38" fill="#bbf7d0" stroke="#aaa" stroke-width="0.7"/>
  <text x="1282" y="153" fill="#1B4332" font-size="8.5" text-anchor="middle">Consultar estado actual</text>
  <text x="1282" y="165" fill="#1B4332" font-size="8.5" text-anchor="middle">de la donación</text>

  <rect x="1167" y="179" width="231" height="38" fill="#bbf7d0" stroke="#aaa" stroke-width="0.7"/>
  <text x="1282" y="193" fill="#1B4332" font-size="8.5" text-anchor="middle">Ver historial de</text>
  <text x="1282" y="205" fill="#1B4332" font-size="8.5" text-anchor="middle">donaciones realizadas</text>

  <!-- ── RELEASE 2 LINE ── -->
  <line x1="0" y1="220" x2="1400" y2="220" stroke="#d69e2e" stroke-width="2" stroke-dasharray="6,4"/>
  <rect x="0" y="220" width="110" height="16" fill="#d69e2e"/>
  <text x="55" y="232" fill="white" font-size="9" font-weight="bold" text-anchor="middle">RELEASE 2 (MEDIA)</text>

  <!-- ── TASKS RELEASE 2 ── -->
  <!-- Col 1 R2 -->
  <rect x="2"   y="239" width="229" height="38" fill="#fef9c3" stroke="#aaa" stroke-width="0.7"/>
  <text x="116" y="253" fill="#92400e" font-size="8.5" text-anchor="middle">Modificar necesidades</text>
  <text x="116" y="265" fill="#92400e" font-size="8.5" text-anchor="middle">registradas</text>

  <rect x="2"   y="279" width="229" height="38" fill="#fef9c3" stroke="#aaa" stroke-width="0.7"/>
  <text x="116" y="293" fill="#92400e" font-size="8.5" text-anchor="middle">Cerrar necesidad al</text>
  <text x="116" y="305" fill="#92400e" font-size="8.5" text-anchor="middle">cumplir la meta</text>

  <!-- Col 2 R2 -->
  <rect x="235" y="239" width="229" height="38" fill="#fef9c3" stroke="#aaa" stroke-width="0.7"/>
  <text x="349" y="253" fill="#92400e" font-size="8.5" text-anchor="middle">Ver información de contacto</text>
  <text x="349" y="265" fill="#92400e" font-size="8.5" text-anchor="middle">del intermediario</text>

  <rect x="235" y="279" width="229" height="38" fill="#fef9c3" stroke="#aaa" stroke-width="0.7"/>
  <text x="349" y="293" fill="#92400e" font-size="8.5" text-anchor="middle">Ver artículos no aceptados</text>
  <text x="349" y="305" fill="#92400e" font-size="8.5" text-anchor="middle">y horarios de entrega</text>

  <!-- Col 3 R2 -->
  <rect x="468" y="239" width="229" height="38" fill="#fef9c3" stroke="#aaa" stroke-width="0.7"/>
  <text x="582" y="253" fill="#92400e" font-size="8.5" text-anchor="middle">Editar donación registrada</text>
  <text x="582" y="265" fill="#92400e" font-size="8.5" text-anchor="middle">antes de entregar</text>

  <rect x="468" y="279" width="229" height="38" fill="#fef9c3" stroke="#aaa" stroke-width="0.7"/>
  <text x="582" y="293" fill="#92400e" font-size="8.5" text-anchor="middle">Eliminar registro de</text>
  <text x="582" y="305" fill="#92400e" font-size="8.5" text-anchor="middle">donación</text>

  <!-- Col 4 R2 -->
  <rect x="701" y="239" width="229" height="38" fill="#fef9c3" stroke="#aaa" stroke-width="0.7"/>
  <text x="815" y="253" fill="#92400e" font-size="8.5" text-anchor="middle">Clasificar donación por</text>
  <text x="815" y="265" fill="#92400e" font-size="8.5" text-anchor="middle">tipo de artículo</text>

  <rect x="701" y="279" width="229" height="38" fill="#fef9c3" stroke="#aaa" stroke-width="0.7"/>
  <text x="815" y="293" fill="#92400e" font-size="8.5" text-anchor="middle">Marcar artículo recibido</text>
  <text x="815" y="305" fill="#92400e" font-size="8.5" text-anchor="middle">como aceptado/rechazado</text>

  <!-- Col 5 R2 -->
  <rect x="934" y="239" width="229" height="38" fill="#fef9c3" stroke="#aaa" stroke-width="0.7"/>
  <text x="1048" y="253" fill="#92400e" font-size="8.5" text-anchor="middle">Verificar artículos</text>
  <text x="1048" y="265" fill="#92400e" font-size="8.5" text-anchor="middle">recibidos</text>

  <rect x="934" y="279" width="229" height="38" fill="#fef9c3" stroke="#aaa" stroke-width="0.7"/>
  <text x="1048" y="293" fill="#92400e" font-size="8.5" text-anchor="middle">Consultar donaciones</text>
  <text x="1048" y="305" fill="#92400e" font-size="8.5" text-anchor="middle">asignadas</text>

  <!-- Col 6 R2 -->
  <rect x="1167" y="239" width="231" height="38" fill="#fef9c3" stroke="#aaa" stroke-width="0.7"/>
  <text x="1282" y="253" fill="#92400e" font-size="8.5" text-anchor="middle">Ver fecha de actualización</text>
  <text x="1282" y="265" fill="#92400e" font-size="8.5" text-anchor="middle">del estado</text>

  <rect x="1167" y="279" width="231" height="38" fill="#fef9c3" stroke="#aaa" stroke-width="0.7"/>
  <text x="1282" y="293" fill="#92400e" font-size="8.5" text-anchor="middle">Ver donaciones</text>
  <text x="1282" y="305" fill="#92400e" font-size="8.5" text-anchor="middle">entregadas</text>

  <!-- ── RELEASE 3 LINE ── -->
  <line x1="0" y1="320" x2="1400" y2="320" stroke="#3182ce" stroke-width="2" stroke-dasharray="6,4"/>
  <rect x="0" y="320" width="110" height="16" fill="#3182ce"/>
  <text x="55" y="332" fill="white" font-size="9" font-weight="bold" text-anchor="middle">RELEASE 3 (BAJA)</text>

  <!-- ── TASKS RELEASE 3 ── -->
  <!-- Col 1 R3 -->
  <rect x="2"   y="339" width="229" height="38" fill="#dbeafe" stroke="#aaa" stroke-width="0.7"/>
  <text x="116" y="353" fill="#1e40af" font-size="8.5" text-anchor="middle">Registrar voluntarios para</text>
  <text x="116" y="365" fill="#1e40af" font-size="8.5" text-anchor="middle">tareas de entrega</text>

  <!-- Col 2 R3 -->
  <rect x="235" y="339" width="229" height="38" fill="#dbeafe" stroke="#aaa" stroke-width="0.7"/>
  <text x="349" y="353" fill="#1e40af" font-size="8.5" text-anchor="middle">Ver org. cercanas según</text>
  <text x="349" y="365" fill="#1e40af" font-size="8.5" text-anchor="middle">ubicación del usuario</text>

  <!-- Col 3 R3 -->
  <rect x="468" y="339" width="229" height="38" fill="#dbeafe" stroke="#aaa" stroke-width="0.7"/>
  <text x="582" y="353" fill="#1e40af" font-size="8.5" text-anchor="middle">Consultar requisitos y artículos</text>
  <text x="582" y="365" fill="#1e40af" font-size="8.5" text-anchor="middle">no aceptados</text>

  <!-- Col 4 R3 -->
  <rect x="701" y="339" width="229" height="38" fill="#dbeafe" stroke="#aaa" stroke-width="0.7"/>
  <text x="815" y="353" fill="#1e40af" font-size="8.5" text-anchor="middle">Generar reportes de</text>
  <text x="815" y="365" fill="#1e40af" font-size="8.5" text-anchor="middle">donaciones recibidas</text>

  <!-- Col 5 R3 -->
  <rect x="934" y="339" width="229" height="38" fill="#dbeafe" stroke="#aaa" stroke-width="0.7"/>
  <text x="1048" y="353" fill="#1e40af" font-size="8.5" text-anchor="middle">Registrar motivo de</text>
  <text x="1048" y="365" fill="#1e40af" font-size="8.5" text-anchor="middle">rechazo de artículo</text>

  <!-- Col 6 R3 -->
  <rect x="1167" y="339" width="231" height="38" fill="#dbeafe" stroke="#aaa" stroke-width="0.7"/>
  <text x="1282" y="353" fill="#1e40af" font-size="8.5" text-anchor="middle">Gestionar tickets de</text>
  <text x="1282" y="365" fill="#1e40af" font-size="8.5" text-anchor="middle">soporte</text>

  <!-- ── ADMIN SECTION ── -->
  <line x1="0" y1="385" x2="1400" y2="385" stroke="#1B4332" stroke-width="1.5" stroke-dasharray="4,4"/>
  <rect x="0" y="385" width="150" height="18" fill="#1B4332" opacity="0.85"/>
  <text x="75" y="398" fill="white" font-size="9" font-weight="bold" text-anchor="middle">ADMIN TRANSVERSAL</text>

  <rect x="2"   y="406" width="229" height="38" fill="#f0fff4" stroke="#1B4332" stroke-width="0.7"/>
  <text x="116" y="420" fill="#1B4332" font-size="8.5" text-anchor="middle">Crear/editar/desactivar</text>
  <text x="116" y="432" fill="#1B4332" font-size="8.5" text-anchor="middle">usuarios del sistema</text>

  <rect x="235" y="406" width="229" height="38" fill="#f0fff4" stroke="#1B4332" stroke-width="0.7"/>
  <text x="349" y="420" fill="#1B4332" font-size="8.5" text-anchor="middle">Registrar/aprobar/</text>
  <text x="349" y="432" fill="#1B4332" font-size="8.5" text-anchor="middle">bloquear organizaciones</text>

  <rect x="468" y="406" width="229" height="38" fill="#f0fff4" stroke="#1B4332" stroke-width="0.7"/>
  <text x="582" y="420" fill="#1B4332" font-size="8.5" text-anchor="middle">Gestionar puntos de</text>
  <text x="582" y="432" fill="#1B4332" font-size="8.5" text-anchor="middle">entrega y horarios</text>

  <rect x="701" y="406" width="229" height="38" fill="#f0fff4" stroke="#1B4332" stroke-width="0.7"/>
  <text x="815" y="420" fill="#1B4332" font-size="8.5" text-anchor="middle">Configurar catálogos</text>
  <text x="815" y="432" fill="#1B4332" font-size="8.5" text-anchor="middle">(categorías, estados, rechazos)</text>

  <rect x="934" y="406" width="229" height="38" fill="#f0fff4" stroke="#1B4332" stroke-width="0.7"/>
  <text x="1048" y="420" fill="#1B4332" font-size="8.5" text-anchor="middle">Asignar roles a usuarios</text>
  <text x="1048" y="432" fill="#1B4332" font-size="8.5" text-anchor="middle">(donante/intermediario/admin)</text>

  <rect x="1167" y="406" width="231" height="38" fill="#f0fff4" stroke="#1B4332" stroke-width="0.7"/>
  <text x="1282" y="420" fill="#1B4332" font-size="8.5" text-anchor="middle">Generar reportes y</text>
  <text x="1282" y="432" fill="#1B4332" font-size="8.5" text-anchor="middle">supervisar el sistema</text>

  <!-- ── LEYENDA ── -->
  <rect x="0" y="456" width="1400" height="1" fill="#ccc"/>
  <text x="20" y="475" fill="#1B4332" font-size="11" font-weight="bold">LEYENDA:</text>
  <rect x="100" y="462" width="20" height="14" fill="#d1fae5" stroke="#1B4332" stroke-width="1"/>
  <text x="126" y="474" fill="#333" font-size="10">Backbone (historias principales)</text>
  <rect x="310" y="462" width="20" height="14" fill="#bbf7d0" stroke="#aaa" stroke-width="0.7"/>
  <text x="336" y="474" fill="#333" font-size="10">Release 1 — Alta prioridad (MVP)</text>
  <rect x="540" y="462" width="20" height="14" fill="#fef9c3" stroke="#aaa" stroke-width="0.7"/>
  <text x="566" y="474" fill="#333" font-size="10">Release 2 — Prioridad media</text>
  <rect x="740" y="462" width="20" height="14" fill="#dbeafe" stroke="#aaa" stroke-width="0.7"/>
  <text x="766" y="474" fill="#333" font-size="10">Release 3 — Baja prioridad</text>
  <rect x="940" y="462" width="20" height="14" fill="#f0fff4" stroke="#1B4332" stroke-width="0.7"/>
  <text x="966" y="474" fill="#333" font-size="10">Funcionalidades de Administrador (transversales)</text>

  <!-- Column separators -->
  <line x1="233"  y1="38" x2="233"  y2="456" stroke="#1B4332" stroke-width="1"/>
  <line x1="466"  y1="38" x2="466"  y2="456" stroke="#1B4332" stroke-width="1"/>
  <line x1="699"  y1="38" x2="699"  y2="456" stroke="#1B4332" stroke-width="1"/>
  <line x1="932"  y1="38" x2="932"  y2="456" stroke="#1B4332" stroke-width="1"/>
  <line x1="1165" y1="38" x2="1165" y2="456" stroke="#1B4332" stroke-width="1"/>

  <!-- Outer border -->
  <rect x="0" y="38" width="1400" height="418" fill="none" stroke="#1B4332" stroke-width="2"/>

  <!-- Actor labels on left -->
  <text x="5" y="165" fill="#065f46" font-size="8" font-weight="bold" transform="rotate(-90, 5, 165)">INTERMEDIARIO</text>
  <text x="5" y="275" fill="#92400e" font-size="8" font-weight="bold" transform="rotate(-90, 5, 275)">DONANTE</text>
</svg>
